<svg clip-rule="evenodd" fill-rule="evenodd" stroke-linejoin="round" stroke-miterlimit="2" viewBox="0 0 24 24" xmlns="http://www.w3.org/2000/svg"><path d="m12.017 1.995c5.517 0 9.997 4.48 9.997 9.998s-4.48 9.998-9.997 9.998c-5.518 0-9.998-4.48-9.998-9.998s4.48-9.998 9.998-9.998zm0 1.5c-4.69 0-8.498 3.808-8.498 8.498s3.808 8.498 8.498 8.498 8.497-3.808 8.497-8.498-3.807-8.498-8.497-8.498zm-1.528 4.715s-1.502 1.505-3.255 3.259c-.147.147-.22.339-.22.531s.073.383.22.53c1.753 1.754 3.254 3.258 3.254 3.258.145.145.335.217.526.217.192-.001.384-.074.531-.221.292-.293.294-.766.003-1.057l-1.977-1.977h6.693c.414 0 .75-.336.75-.75s-.336-.75-.75-.75h-6.693l1.978-1.979c.29-.289.287-.762-.006-1.054-.147-.147-.339-.221-.53-.222-.19 0-.38.071-.524.215z" fill-rule="nonzero"/></svg>